<svg xmlns="http://www.w3.org/2000/svg" width="500" height="500" viewBox="0 0 1125 1125" preserveAspectRatio="xMidYMid meet">
  <!-- Círculo azul -->
  <circle cx="562.5" cy="562.5" r="562.5" fill="#3969e9" />

  <!-- Casa branca ainda maior -->
  <g transform="translate(200, 150) scale(2)">
    <path d="M277.5,387.16H57.5A57.57,57.57,0,0,1,0,329.66V175.44a56.22,56.22,0,0,1,15.89-39.29L133.58,14.44a47.06,47.06,0,0,1,67.84,0L330.08,147.49a17.5,17.5,0,1,1-25.16,24.33l-128.67-133a12,12,0,0,0-17.5,0L41.05,160.48a21.42,21.42,0,0,0-6,15V329.66a22.53,22.53,0,0,0,22.5,22.5h220a17.5,17.5,0,0,1,0,35Z" fill="#ffffff"/>
  </g>
</svg>
