<svg xmlns="http://www.w3.org/2000/svg" xmlns:xlink="http://www.w3.org/1999/xlink" width="1500" zoomAndPan="magnify" viewBox="0 0 1125 1124.99995" height="1500" preserveAspectRatio="xMidYMid meet" version="1.0">
  <path fill="#3969e9" d="M 1124.90625 562.453125 C 1124.617188 871.992188 874.757812 1125 562.167969 1124.808594 C 251.671875 1124.617188 0.09375 873.992188 0.191406 562.167969 C 0.285156 249.957031 252.914062 0.191406 562.644531 0.09375 C 873.039062 0 1124.90625 252.054688 1124.90625 562.453125 Z M 659.691406 685.621094 C 659.691406 616.3125 659.59375 547.105469 659.785156 477.796875 C 659.878906 451.582031 650.539062 429.371094 631.1875 412.117188 C 600.679688 384.851562 565.21875 379.132812 527.179688 392.574219 C 490.859375 405.441406 466.550781 440.332031 466.738281 479.800781 C 467.503906 617.839844 467.121094 755.878906 466.929688 893.917969 C 466.929688 971.898438 533.757812 985.054688 565.695312 984.957031 C 613.742188 984.769531 660.929688 946.0625 659.976562 890.484375 C 658.738281 822.230469 659.691406 753.875 659.691406 685.621094 Z M 666.269531 242.710938 C 666.171875 185.132812 620.222656 139.277344 562.546875 139.277344 C 504.777344 139.277344 458.636719 185.515625 458.730469 243.285156 C 458.828125 300.386719 505.445312 346.910156 562.644531 346.910156 C 620.222656 346.910156 666.269531 300.578125 666.269531 242.710938 Z M 666.269531 242.710938 " fill-opacity="1" fill-rule="nonzero" />
</svg>
