<svg xmlns="http://www.w3.org/2000/svg" xmlns:xlink="http://www.w3.org/1999/xlink" fill="#000000" height="375" version="1" viewBox="0 0 375 375" width="375"><defs><clipPath id="a"><path d="M 0 150.25 L 74.503906 150.25 L 74.503906 224.75 L 0 224.75 Z M 0 150.25"/></clipPath><clipPath id="b"><path d="M 17.25 150.25 L 57.253906 150.25 C 61.828125 150.25 66.214844 152.066406 69.453125 155.300781 C 72.6875 158.535156 74.503906 162.921875 74.503906 167.5 L 74.503906 207.5 C 74.503906 212.078125 72.6875 216.464844 69.453125 219.699219 C 66.214844 222.933594 61.828125 224.75 57.253906 224.75 L 17.25 224.75 C 12.675781 224.75 8.289062 222.933594 5.050781 219.699219 C 1.816406 216.464844 0 212.078125 0 207.5 L 0 167.5 C 0 162.921875 1.816406 158.535156 5.050781 155.300781 C 8.289062 152.066406 12.675781 150.25 17.25 150.25 Z M 17.25 150.25"/></clipPath><clipPath id="c"><path d="M 12.496094 159.015625 L 61.996094 159.015625 L 61.996094 216 L 12.496094 216 Z M 12.496094 159.015625"/></clipPath></defs><g clip-path="url(#a)"><g clip-path="url(#b)"><path d="M 0 150.25 L 74.503906 150.25 L 74.503906 224.75 L 0 224.75 Z M 0 150.25" fill="#3969e9"/></g></g><g clip-path="url(#c)"><path d="M 53.347656 215.976562 L 20.980469 215.976562 C 20.425781 215.972656 19.878906 215.917969 19.332031 215.808594 C 18.789062 215.703125 18.257812 215.539062 17.746094 215.328125 C 17.234375 215.113281 16.746094 214.855469 16.285156 214.546875 C 15.824219 214.238281 15.394531 213.886719 15.003906 213.492188 C 14.609375 213.101562 14.261719 212.675781 13.953125 212.210938 C 13.644531 211.75 13.382812 211.265625 13.167969 210.75 C 12.957031 210.238281 12.796875 209.710938 12.6875 209.164062 C 12.578125 208.621094 12.523438 208.070312 12.523438 207.515625 L 12.523438 184.828125 C 12.519531 183.746094 12.722656 182.707031 13.125 181.707031 C 13.53125 180.707031 14.109375 179.820312 14.859375 179.046875 L 32.175781 161.140625 C 32.5 160.804688 32.851562 160.503906 33.234375 160.238281 C 33.617188 159.976562 34.023438 159.75 34.453125 159.570312 C 34.882812 159.386719 35.324219 159.25 35.78125 159.15625 C 36.238281 159.0625 36.699219 159.015625 37.164062 159.015625 C 37.632812 159.015625 38.09375 159.0625 38.550781 159.15625 C 39.007812 159.25 39.449219 159.386719 39.878906 159.570312 C 40.304688 159.75 40.710938 159.976562 41.097656 160.238281 C 41.480469 160.503906 41.832031 160.804688 42.15625 161.140625 L 61.085938 180.714844 C 61.324219 180.960938 61.507812 181.242188 61.632812 181.558594 C 61.761719 181.878906 61.820312 182.207031 61.816406 182.550781 C 61.8125 182.890625 61.742188 183.21875 61.605469 183.535156 C 61.46875 183.847656 61.277344 184.125 61.03125 184.363281 C 60.785156 184.601562 60.503906 184.785156 60.183594 184.910156 C 59.867188 185.035156 59.535156 185.09375 59.191406 185.085938 C 58.851562 185.082031 58.523438 185.007812 58.207031 184.871094 C 57.894531 184.734375 57.621094 184.542969 57.382812 184.292969 L 38.453125 164.726562 C 38.285156 164.550781 38.089844 164.410156 37.867188 164.316406 C 37.644531 164.21875 37.410156 164.167969 37.164062 164.167969 C 36.921875 164.167969 36.6875 164.21875 36.464844 164.316406 C 36.242188 164.410156 36.046875 164.550781 35.878906 164.726562 L 18.5625 182.625 C 17.96875 183.242188 17.675781 183.976562 17.679688 184.832031 L 17.679688 207.515625 C 17.679688 207.953125 17.765625 208.375 17.933594 208.78125 C 18.101562 209.1875 18.339844 209.542969 18.648438 209.855469 C 18.960938 210.164062 19.320312 210.402344 19.722656 210.574219 C 20.128906 210.742188 20.550781 210.824219 20.988281 210.824219 L 53.355469 210.824219 C 53.699219 210.824219 54.027344 210.890625 54.339844 211.019531 C 54.65625 211.152344 54.933594 211.339844 55.175781 211.578125 C 55.417969 211.820312 55.605469 212.097656 55.734375 212.414062 C 55.867188 212.730469 55.929688 213.058594 55.929688 213.398438 C 55.929688 213.742188 55.867188 214.070312 55.734375 214.386719 C 55.605469 214.699219 55.417969 214.980469 55.175781 215.21875 C 54.933594 215.460938 54.65625 215.648438 54.339844 215.777344 C 54.027344 215.910156 53.699219 215.976562 53.355469 215.976562 Z M 53.347656 215.976562" fill="#ffffff"/></g><g fill="#3969e9"><g><g><path d="M 7.78125 0.234375 C 6.113281 0.078125 4.175781 0 1.96875 0 L -0.3125 0 L 12.25 -35.234375 C 12.8125 -36.804688 13.09375 -37.722656 13.09375 -37.984375 C 13.09375 -38.242188 13.082031 -38.40625 13.0625 -38.46875 L 13.09375 -38.53125 C 14.34375 -38.46875 15.671875 -38.4375 17.078125 -38.4375 C 18.234375 -38.4375 19.617188 -38.457031 21.234375 -38.5 L 21.265625 -38.4375 C 21.234375 -38.363281 21.21875 -38.257812 21.21875 -38.125 C 21.21875 -37.75 21.503906 -36.773438 22.078125 -35.203125 L 34.90625 0.09375 C 34.519531 0.0703125 34.066406 0.0625 33.546875 0.0625 C 33.546875 0.0625 33.046875 0.0390625 32.046875 0 C 31.566406 0 31.132812 0 30.75 0 L 26.265625 0 L 23.546875 -8.328125 L 10.484375 -8.328125 Z M 21.296875 -15.265625 L 16.9375 -28.703125 L 12.6875 -15.265625 Z M 21.296875 -15.265625" transform="translate(83.488808, 205.165324)"/></g></g></g><g fill="#3969e9"><g><g><path d="M -0.109375 -30.203125 L 8.0625 -30.203125 L 15.109375 -10.3125 L 21.9375 -30.203125 L 29.9375 -30.203125 L 18 0 L 12.046875 0 Z M -0.109375 -30.203125" transform="translate(118.084185, 205.165324)"/></g></g></g><g fill="#3969e9"><g><g><path d="M 24.1875 -1.796875 C 21.445312 -0.304688 18.96875 0.4375 16.75 0.4375 C 14.539062 0.4375 12.644531 0.226562 11.0625 -0.1875 C 9.488281 -0.601562 8.148438 -1.210938 7.046875 -2.015625 C 4.816406 -3.660156 3.703125 -6.03125 3.703125 -9.125 C 3.703125 -11.90625 5.066406 -14.21875 7.796875 -16.0625 C 10.765625 -18.070312 14.796875 -19.078125 19.890625 -19.078125 L 21.046875 -19.046875 C 21.273438 -19.023438 21.53125 -19.007812 21.8125 -19 C 22.101562 -18.988281 22.363281 -18.960938 22.59375 -18.921875 C 22.445312 -22.003906 21.117188 -23.804688 18.609375 -24.328125 C 17.785156 -24.503906 16.90625 -24.59375 15.96875 -24.59375 C 15.03125 -24.59375 14.113281 -24.507812 13.21875 -24.34375 C 12.320312 -24.1875 11.453125 -23.972656 10.609375 -23.703125 C 8.734375 -23.097656 7.394531 -22.410156 6.59375 -21.640625 L 6.5 -21.703125 L 5.640625 -28.09375 C 9.046875 -29.882812 12.769531 -30.78125 16.8125 -30.78125 C 23.09375 -30.78125 27.113281 -28.515625 28.875 -23.984375 C 29.425781 -22.535156 29.703125 -20.910156 29.703125 -19.109375 L 29.703125 -8.640625 C 29.703125 -6.398438 30.492188 -4.878906 32.078125 -4.078125 L 26.84375 0.71875 C 25.75 0.144531 24.863281 -0.691406 24.1875 -1.796875 Z M 22.625 -13.734375 C 22.101562 -13.828125 21.566406 -13.875 21.015625 -13.875 L 19.859375 -13.875 C 15.597656 -13.875 12.890625 -12.929688 11.734375 -11.046875 C 11.390625 -10.484375 11.21875 -9.894531 11.21875 -9.28125 C 11.21875 -8.664062 11.328125 -8.117188 11.546875 -7.640625 C 11.765625 -7.171875 12.132812 -6.78125 12.65625 -6.46875 C 13.65625 -5.894531 15.140625 -5.609375 17.109375 -5.609375 C 19.085938 -5.609375 20.9375 -6.078125 22.65625 -7.015625 C 22.632812 -7.234375 22.625 -7.457031 22.625 -7.6875 Z M 22.625 -13.734375" transform="translate(147.881873, 205.165324)"/></g></g></g><g fill="#3969e9"><g><g><path d="M 10.953125 -3.234375 C 10.953125 -1.578125 10.988281 -0.5 11.0625 0 L 3.734375 0 L 3.734375 -43.0625 L 10.953125 -43.0625 Z M 10.953125 -3.234375" transform="translate(182.361642, 205.165324)"/></g></g></g><g fill="#3969e9"><g><g><path d="M 3.328125 -38.8125 C 4.867188 -41.21875 6.476562 -43.335938 8.15625 -45.171875 L 14.359375 -40.28125 C 13.535156 -39.257812 12.765625 -38.257812 12.046875 -37.28125 C 12.046875 -37.28125 11.304688 -36.226562 9.828125 -34.125 Z M 10.921875 -3.234375 C 10.921875 -1.578125 10.960938 -0.5 11.046875 0 L 3.703125 0 L 3.703125 -30.203125 L 10.921875 -30.203125 Z M 10.921875 -3.234375" transform="translate(197.188232, 205.165324)"/></g></g></g><g fill="#3969e9"><g><g><path d="M 2.796875 -14.859375 C 2.796875 -17.109375 3.179688 -19.195312 3.953125 -21.125 C 4.722656 -23.050781 5.8125 -24.738281 7.21875 -26.1875 C 10.226562 -29.25 14.160156 -30.78125 19.015625 -30.78125 C 23.117188 -30.78125 26.414062 -29.421875 28.90625 -26.703125 C 31.351562 -24.078125 32.578125 -20.78125 32.578125 -16.8125 C 32.578125 -15.289062 32.457031 -14.253906 32.21875 -13.703125 C 30.289062 -13.160156 26.375 -12.890625 20.46875 -12.890625 L 10.28125 -12.890625 C 10.789062 -10.828125 11.957031 -9.222656 13.78125 -8.078125 C 15.613281 -6.929688 17.992188 -6.359375 20.921875 -6.359375 C 23.984375 -6.359375 26.613281 -6.90625 28.8125 -8 C 29.394531 -8.289062 29.828125 -8.5625 30.109375 -8.8125 C 30.078125 -8 30.03125 -7.171875 29.96875 -6.328125 L 29.65625 -1.828125 C 28.1875 -0.816406 25.816406 -0.117188 22.546875 0.265625 C 21.578125 0.378906 20.648438 0.4375 19.765625 0.4375 C 14.867188 0.4375 10.820312 -0.988281 7.625 -3.84375 C 4.40625 -6.71875 2.796875 -10.390625 2.796875 -14.859375 Z M 24.890625 -18.5 C 24.097656 -22.632812 21.84375 -24.703125 18.125 -24.703125 C 15.195312 -24.703125 12.96875 -23.441406 11.4375 -20.921875 C 10.976562 -20.148438 10.625 -19.300781 10.375 -18.375 C 10.832031 -18.363281 11.398438 -18.347656 12.078125 -18.328125 L 14.21875 -18.328125 C 14.925781 -18.304688 15.609375 -18.296875 16.265625 -18.296875 L 17.921875 -18.296875 C 18.898438 -18.296875 19.863281 -18.304688 20.8125 -18.328125 L 23.171875 -18.40625 C 23.804688 -18.425781 24.378906 -18.457031 24.890625 -18.5 Z M 24.890625 -18.5" transform="translate(212.014822, 205.165324)"/></g></g></g><g fill="#3969e9"><g><g><path d="M 18.84375 0.171875 C 17.914062 0.0546875 15.535156 0 11.703125 0 L 10.78125 0 L 10.78125 -31.96875 L 5.0625 -31.96875 C 3.363281 -31.96875 2.359375 -31.878906 2.046875 -31.703125 C 1.742188 -31.523438 1.503906 -31.367188 1.328125 -31.234375 L 1.25 -31.265625 L 1.25 -38.671875 L 1.328125 -38.75 C 1.960938 -38.539062 3.675781 -38.4375 6.46875 -38.4375 L 24.59375 -38.4375 C 26.289062 -38.4375 27.289062 -38.519531 27.59375 -38.6875 C 27.90625 -38.863281 28.148438 -39.019531 28.328125 -39.15625 L 28.40625 -39.125 L 28.40625 -31.734375 L 28.328125 -31.640625 C 27.691406 -31.859375 25.972656 -31.96875 23.171875 -31.96875 L 18.84375 -31.96875 Z M 18.84375 0.171875" transform="translate(246.610198, 205.165324)"/></g></g></g><g fill="#3969e9"><g><g><path d="M 2.796875 -14.859375 C 2.796875 -17.109375 3.179688 -19.195312 3.953125 -21.125 C 4.722656 -23.050781 5.8125 -24.738281 7.21875 -26.1875 C 10.226562 -29.25 14.160156 -30.78125 19.015625 -30.78125 C 23.117188 -30.78125 26.414062 -29.421875 28.90625 -26.703125 C 31.351562 -24.078125 32.578125 -20.78125 32.578125 -16.8125 C 32.578125 -15.289062 32.457031 -14.253906 32.21875 -13.703125 C 30.289062 -13.160156 26.375 -12.890625 20.46875 -12.890625 L 10.28125 -12.890625 C 10.789062 -10.828125 11.957031 -9.222656 13.78125 -8.078125 C 15.613281 -6.929688 17.992188 -6.359375 20.921875 -6.359375 C 23.984375 -6.359375 26.613281 -6.90625 28.8125 -8 C 29.394531 -8.289062 29.828125 -8.5625 30.109375 -8.8125 C 30.078125 -8 30.03125 -7.171875 29.96875 -6.328125 L 29.65625 -1.828125 C 28.1875 -0.816406 25.816406 -0.117188 22.546875 0.265625 C 21.578125 0.378906 20.648438 0.4375 19.765625 0.4375 C 14.867188 0.4375 10.820312 -0.988281 7.625 -3.84375 C 4.40625 -6.71875 2.796875 -10.390625 2.796875 -14.859375 Z M 24.890625 -18.5 C 24.097656 -22.632812 21.84375 -24.703125 18.125 -24.703125 C 15.195312 -24.703125 12.96875 -23.441406 11.4375 -20.921875 C 10.976562 -20.148438 10.625 -19.300781 10.375 -18.375 C 10.832031 -18.363281 11.398438 -18.347656 12.078125 -18.328125 L 14.21875 -18.328125 C 14.925781 -18.304688 15.609375 -18.296875 16.265625 -18.296875 L 17.921875 -18.296875 C 18.898438 -18.296875 19.863281 -18.304688 20.8125 -18.328125 L 23.171875 -18.40625 C 23.804688 -18.425781 24.378906 -18.457031 24.890625 -18.5 Z M 24.890625 -18.5" transform="translate(276.263378, 205.165324)"/></g></g></g><g fill="#3969e9"><g><g><path d="M 27.859375 -2.796875 C 25.703125 -0.640625 22.320312 0.4375 17.71875 0.4375 C 13.25 0.4375 9.597656 -0.921875 6.765625 -3.640625 C 3.890625 -6.398438 2.453125 -10.0625 2.453125 -14.625 C 2.453125 -19.269531 3.867188 -23.082031 6.703125 -26.0625 C 9.710938 -29.207031 13.726562 -30.78125 18.75 -30.78125 C 22.320312 -30.78125 25.3125 -30 27.71875 -28.4375 L 26.5625 -21.046875 L 26.359375 -21.0625 C 25.429688 -22.1875 24.457031 -22.921875 23.4375 -23.265625 C 21.78125 -23.835938 20.125 -24.125 18.46875 -24.125 C 16.8125 -24.125 15.507812 -23.910156 14.5625 -23.484375 C 13.625 -23.066406 12.816406 -22.484375 12.140625 -21.734375 C 10.785156 -20.191406 10.109375 -18.148438 10.109375 -15.609375 C 10.109375 -11.097656 11.671875 -8.148438 14.796875 -6.765625 C 15.878906 -6.296875 17.019531 -6.0625 18.21875 -6.0625 C 19.425781 -6.0625 20.476562 -6.164062 21.375 -6.375 C 22.269531 -6.59375 23.082031 -6.882812 23.8125 -7.25 C 25.375 -8.019531 26.4375 -8.914062 27 -9.9375 L 27.1875 -9.859375 Z M 27.859375 -2.796875" transform="translate(310.858755, 205.165324)"/></g></g></g><g fill="#3969e9"><g><g><path d="M 12.078125 -3.234375 C 12.078125 -1.578125 12.117188 -0.5 12.203125 0 L 5 0 L 5 -41.328125 L 12.078125 -41.328125 L 12.078125 -27.953125 C 14.566406 -29.835938 17.128906 -30.78125 19.765625 -30.78125 C 23.003906 -30.78125 25.609375 -29.710938 27.578125 -27.578125 C 29.492188 -25.429688 30.453125 -22.597656 30.453125 -19.078125 L 30.453125 -7.578125 C 30.453125 -4.316406 30.5 -2.359375 30.59375 -1.703125 C 30.695312 -1.046875 30.828125 -0.617188 30.984375 -0.421875 C 31.148438 -0.234375 31.296875 -0.0625 31.421875 0.09375 L 31.359375 0.203125 C 29.796875 0.0664062 28.660156 0 27.953125 0 L 25.890625 0 C 25.253906 0 24.414062 0.03125 23.375 0.09375 L 23.375 -16.640625 C 23.375 -19.304688 22.789062 -21.273438 21.625 -22.546875 C 20.726562 -23.503906 19.519531 -23.984375 18 -23.984375 C 15.75 -23.984375 13.773438 -22.679688 12.078125 -20.078125 Z M 12.078125 -3.234375" transform="translate(340.51192, 205.165324)"/></g></g></g></svg>
