<svg xmlns="http://www.w3.org/2000/svg" xmlns:xlink="http://www.w3.org/1999/xlink" width="1500" zoomAndPan="magnify" viewBox="0 0 1125 1124.99995" height="1500" preserveAspectRatio="xMidYMid meet" version="1.0"><defs><clipPath id="ae6191e610"><path d="M 562.5 0 C 251.839844 0 0 251.839844 0 562.5 C 0 873.160156 251.839844 1125 562.5 1125 C 873.160156 1125 1125 873.160156 1125 562.5 C 1125 251.839844 873.160156 0 562.5 0 Z M 562.5 0 " clip-rule="nonzero"/></clipPath><clipPath id="311fc1acf9"><path d="M 177 156.695312 L 944 156.695312 L 944 951.695312 L 177 951.695312 Z M 177 156.695312 " clip-rule="nonzero"/></clipPath></defs><g clip-path="url(#ae6191e610)"><rect x="-112.5" width="1350" fill="#3969e9" y="-112.499995" height="1349.99994" fill-opacity="1"/></g><g clip-path="url(#311fc1acf9)"><path fill="#ffffff" d="M 932.246094 888.058594 L 741.742188 705.039062 C 798.328125 644.507812 829.332031 565.996094 829.332031 482.707031 C 829.332031 399.421875 795.378906 313.777344 733.84375 252.183594 C 672.25 190.585938 590.375 156.695312 503.316406 156.695312 C 416.257812 156.695312 334.386719 190.585938 272.792969 252.183594 C 211.195312 313.777344 177.304688 395.648438 177.304688 482.707031 C 177.304688 569.765625 211.195312 651.636719 272.792969 713.234375 C 334.386719 774.828125 416.257812 808.722656 503.316406 808.722656 C 568.980469 808.722656 631.636719 789.445312 684.921875 753.550781 L 880.730469 941.636719 C 887.683594 948.296875 896.820312 952.011719 906.488281 952.011719 C 916.15625 952.011719 926.351562 947.828125 933.308594 940.578125 C 947.511719 925.78125 947.039062 902.203125 932.246094 888 Z M 646.550781 696.730469 C 605.585938 724.195312 556.367188 740.230469 503.316406 740.230469 C 361.089844 740.230469 245.855469 624.9375 245.855469 482.765625 C 245.855469 340.597656 361.089844 225.246094 503.316406 225.246094 C 645.546875 225.246094 760.78125 340.539062 760.78125 482.707031 C 760.78125 553.203125 732.429688 617.097656 686.511719 663.605469 C 674.371094 675.921875 660.929688 687.0625 646.492188 696.730469 Z M 646.550781 696.730469 " fill-opacity="1" fill-rule="nonzero"/></g></svg>
